<?xml version="1.0" encoding="UTF-8"?><svg id="Layer_1" xmlns="http://www.w3.org/2000/svg" viewBox="0 0 567 570.8"><defs><style>.cls-1{fill:none;stroke:#fff;stroke-miterlimit:10;stroke-width:3px;}.cls-2{fill:#fff;stroke-width:0px;}</style></defs><g id="Layer_2"><polygon class="cls-1" points="93.51 314.47 69.74 318.94 113.77 342.47 123.73 354.66 116.53 331.43 93.51 314.47"/><polygon class="cls-1" points="67.76 319.06 108.22 355.86 113.77 342.47 93.51 314.47 79.46 295.68 67.76 319.06"/><polygon class="cls-1" points="117.31 308.83 94.47 314.26 95.49 288.33 117.31 308.83"/><polygon class="cls-1" points="64.3 298.62 79.58 294.12 93.09 288.75 74.06 285.17 64.3 298.62"/><polygon class="cls-1" points="105.9 274.91 115.33 264.01 123.73 270.32 114.82 287.28 105.9 274.91"/><polyline class="cls-1" points="74.06 285.17 91.98 268.67 95.49 288.33 101.52 279.14 113.77 287.4 119.29 308.95 116.53 331.43 94.47 315.19 119.29 315.01 128.75 315.94 132.29 322.36 138.08 319.21 135.05 334.01 133.79 340.22 133.07 343.64 133.34 354.51 137.03 346.01 133.79 340.22"/><polygon class="cls-1" points="89.7 263.23 92.07 252.97 104.28 252.97 115.33 264.01 101.52 279.14 102.06 257.98 95.22 264.01 99.27 275.66 92.61 268.1 89.7 263.23"/><line class="cls-1" x1="114.01" y1="288.33" x2="95.49" y2="288.33"/><path class="cls-1" d="m147.38,325.78l-12.37,8.22-16.39-2.28,13.63-9.36s4.86-3.03,5.79-3.15,6.18-4.95,6.18-4.95l3.15,11.53Z"/><polygon class="cls-1" points="149.09 285.45 146.96 280.67 156.96 282.2 149.09 285.45"/><polyline class="cls-1" points="174.61 303.18 167.1 303.18 144.23 314.26 146.09 290.31 167.49 291.9"/><polyline class="cls-1" points="95.22 264.01 93.09 254.68 102.51 256.54 111.07 259.75"/><line class="cls-1" x1="131.96" y1="261.13" x2="123.73" y2="270.32"/><polyline class="cls-1" points="114.82 287.28 135.44 303.18 138.08 319.21 147.38 325.78 160.41 319.84 153.63 329.48 165.78 328.82 170.92 322.09 167.37 316.84 172.9 314.47 172.36 306.73 175.12 302.4 173.17 298.05 167.49 291.9 158.82 281.24 158.76 273.74 152.01 270.32 125.32 257.17 116.53 260.44 131.96 261.13 135.71 281.36 123.73 270.32 105.9 274.91"/><polygon class="cls-1" points="119.29 308.95 133.4 303.93 128.75 315.94 119.29 308.95"/><line class="cls-1" x1="138.08" y1="319.21" x2="128.75" y2="315.94"/><polyline class="cls-1" points="151.53 271.07 142.97 272.27 142.67 279.65 138.08 282.11 143.06 283.73 138.86 287.28"/><polyline class="cls-1" points="131.12 358.53 117.31 332.21 133.04 342.86"/><line class="cls-1" x1="152.43" y1="329.84" x2="147.38" y2="325.78"/><path class="cls-1" d="m142.67,279.65l3.42.27c.39-.66,2.49-4.26,2.49-4.26l4.17-4.17,6,9.18"/><polyline class="cls-1" points="146.09 279.92 144.56 273.44 148.58 275.66 158.82 281.24"/><polyline class="cls-1" points="147.38 290.4 167.1 303.18 166.95 291.9 148.85 286.35 145.76 289.59 138.86 287.28 135.71 281.36 143 271.55 146.09 267.41"/><polyline class="cls-1" points="173.17 298.05 167.1 303.18 168.69 311.02 144.23 314.26 135.44 303.18 144.23 291.48 126.34 293.85 123.73 270.32"/><polyline class="cls-1" points="144.23 314.26 160.41 319.84 168.69 311.02 172.9 314.47"/><polygon class="cls-1" points="167.37 316.84 164.97 327.01 159.42 319.51 167.37 316.84"/><polyline class="cls-1" points="146.96 280.67 143.06 283.73 149.39 285.81"/><line class="cls-1" x1="145.76" y1="289.59" x2="143.06" y2="283.73"/><circle class="cls-1" cx="124.48" cy="297.12" r="61.71"/></g><path class="cls-2" d="m233.47,255.13c2.22-3.6,4.2-5.1,10.68-5.1,4.56,0,8.16.36,9.12,5.1l7.62,37.38h-13.44l-1.62-8.64h-14.88l-5.1,8.64h-15.18l22.8-37.38Zm2.46,19.14h8.58l-1.62-10.62c-.06-.3-.18-.9-.36-.9s-.54.54-.72.9l-5.88,10.62Z"/><path class="cls-2" d="m292.81,274.63l5.16-24.12h13.56l-5.4,25.2c-3.06,14.4-10.08,17.28-23.28,17.28-11.52,0-18.84-4.02-18.84-12.96,0-1.32.24-3.3.48-4.32l5.4-25.2h13.56l-5.16,24.12c-.18.96-.3,1.86-.3,2.64,0,3.48,2.1,4.8,6,4.8,4.8,0,7.68-2.04,8.82-7.44Z"/><path class="cls-2" d="m353.23,278.53c0,1.08-.06,2.16-.3,3.42-1.5,7.86-4.5,10.56-14.1,10.56h-23.7c-3.54,0-5.34-2.16-5.34-4.98,0-.54.06-1.08.18-1.62l6.12-28.8c.9-4.2,3.18-6.6,7.98-6.6h21.9c7.02,0,9.9,3.18,9.9,9.18,0,1.14-.12,2.28-.42,3.78-.84,4.2-2.34,6.42-7.86,7.44l-.06.24c3.96.84,5.7,3.66,5.7,7.38Zm-28.32.78c-.12.54-.18,1.02-.18,1.38,0,1.26.66,1.62,2.52,1.62h7.62c2.4,0,4.14-.48,4.68-2.88.12-.48.12-1.02.12-1.26,0-1.74-1.32-2.28-3.42-2.28h-10.62l-.72,3.42Zm2.7-12.66h10.08c2.4,0,3.9-.18,4.32-2.64.06-.48.12-1.02.12-1.32,0-1.62-1.2-1.98-3.24-1.98h-7.62c-1.8,0-2.52.6-2.94,2.4l-.72,3.54Z"/><path class="cls-2" d="m386.95,274.63l5.16-24.12h13.56l-5.4,25.2c-3.06,14.4-10.08,17.28-23.28,17.28-11.52,0-18.84-4.02-18.84-12.96,0-1.32.24-3.3.48-4.32l5.4-25.2h13.56l-5.16,24.12c-.18.96-.3,1.86-.3,2.64,0,3.48,2.1,4.8,6,4.8,4.8,0,7.68-2.04,8.82-7.44Z"/><path class="cls-2" d="m410.23,257.11c.9-4.2,3.78-6.6,7.98-6.6h22.5c7.62,0,10.62,4.08,10.62,10.26,0,1.62-.12,3.36-.48,5.22-1.14,6-2.88,13.74-12.48,13.74h-1.2l-.06.24,8.7,12.54h-15.12l-6.96-10.92c-1.2-1.92-1.8-2.58-1.8-4.5,0-.42.06-.78.12-1.2l.18-.9c.78-3.6,3.48-4.74,7.08-4.74h2.04c3.6,0,5.04-1.14,5.82-4.74.18-.72.24-1.38.24-1.92,0-2.04-1.2-2.64-4.08-2.64h-7.74c-1.8,0-2.82.84-3.18,2.64l-6.18,28.92h-13.56l7.56-35.4Z"/><path class="cls-2" d="m497.35,285.49c-.36,1.56-1.5,7.5-10.08,7.5-3.18,0-6.42-.36-8.28-4.14l-10.62-21.42c-.18-.42-.48-1.02-.9-1.02-.18,0-.84,0-1.08,1.2l-5.34,24.9h-11.04l7.44-35.04c1.2-5.52,5.58-7.44,10.44-7.44,2.22,0,6.18.18,8.04,3.9l10.68,21.6c.24.42.48,1.02.96,1.02.66,0,.78-.66.84-1.02l5.34-25.02h11.04l-7.44,34.98Z"/><path class="cls-2" d="m257.17,347.51h-13.56l3.54-16.68h-15.24l-3.54,16.68h-13.56l8.94-42h13.56l-3.18,14.88h15.24l3.18-14.88h13.56l-8.94,42Z"/><path class="cls-2" d="m281.83,310.13c2.22-3.6,4.2-5.1,10.68-5.1,4.56,0,8.16.36,9.12,5.1l7.62,37.38h-13.44l-1.62-8.64h-14.88l-5.1,8.64h-15.18l22.8-37.38Zm2.46,19.14h8.58l-1.62-10.62c-.06-.3-.18-.9-.36-.9s-.54.54-.72.9l-5.88,10.62Z"/><path class="cls-2" d="m327.61,347.51c-11.04,0-15.84-5.34-15.84-14.82,0-2.4.24-5.1.78-7.98,2.7-14.46,7.8-19.2,22.8-19.2h17.76l-2.22,10.44h-10.8c-9,0-11.7.96-13.62,9.96-.42,2.04-.66,4.26-.66,5.58,0,4.62,2.82,5.58,9.78,5.58h11.4l-2.22,10.44h-17.16Z"/><path class="cls-2" d="m357.67,305.51h13.56l-8.94,42h-13.56l8.94-42Zm21.72,42l-9.84-16.26c-.66-1.08-.9-2.22-.9-3.48,0-2.22.42-4.86,2.46-7.02l14.64-15.24h16.08l-18.24,17.94c-1.2,1.14-1.98,2.1-1.98,3.66,0,.72.24,1.44,1.08,2.64l12.42,17.76h-15.72Z"/><path class="cls-2" d="m397.75,337.07h23.28c1.02,0,2.7-.24,2.7-1.62,0-1.02-1.08-1.38-2.34-1.8l-14.04-4.56c-4.32-1.44-6.06-4.62-6.06-9.06,0-1.32.18-3.3.48-4.68,1.38-6.6,4.32-9.84,12.12-9.84h27.72l-2.22,10.44h-21.36c-1.02,0-3.24,0-3.24,1.62,0,1.5,2.04,1.68,3.12,2.04l12.18,3.78c5.22,1.62,7.68,4.2,7.68,9.06,0,1.26-.24,3.24-.54,4.68-1.5,7.2-4.2,10.38-12.6,10.38h-29.04l2.16-10.44Z"/></svg>